<svg viewBox="0 0 175 80" fill="#131F37" xmlns="http://www.w3.org/2000/svg">
  <path d="M51.074 23.111a2.746 2.746 0 0 0 2.75-2.743 2.747 2.747 0 0 0-2.75-2.743 2.747 2.747 0 0 0-2.75 2.743 2.747 2.747 0 0 0 2.75 2.743Zm3.094 38.746a2.747 2.747 0 0 0 2.75-2.743 2.747 2.747 0 0 0-2.75-2.743 2.747 2.747 0 0 0-2.75 2.743 2.747 2.747 0 0 0 2.75 2.743Zm-2.309-31.888a2.305 2.305 0 0 0 2.308-2.302 2.305 2.305 0 0 0-2.308-2.303 2.305 2.305 0 0 0-2.308 2.303 2.305 2.305 0 0 0 2.308 2.302Zm6.139.881a2.305 2.305 0 0 0 2.308-2.302 2.305 2.305 0 0 0-2.308-2.302 2.305 2.305 0 0 0-2.308 2.302 2.305 2.305 0 0 0 2.308 2.302Zm-6.924 4.947a1.962 1.962 0 0 0 1.964-1.959c0-1.082-.88-1.96-1.964-1.96a1.962 1.962 0 0 0-1.965 1.96c0 1.082.88 1.96 1.965 1.96Zm6.138.833a1.962 1.962 0 0 0 1.965-1.959c0-1.082-.88-1.959-1.965-1.959a1.962 1.962 0 0 0-1.964 1.96c0 1.082.88 1.959 1.964 1.959Zm4.911 1.91a1.962 1.962 0 0 0 1.964-1.959c0-1.082-.88-1.959-1.964-1.959a1.962 1.962 0 0 0-1.965 1.96c0 1.081.88 1.959 1.965 1.959Zm-6.728 2.793c.949 0 1.718-.768 1.718-1.715 0-.947-.77-1.714-1.718-1.714-.95 0-1.72.767-1.72 1.714s.77 1.715 1.72 1.715Zm-6.139-.833c.95 0 1.719-.768 1.719-1.715 0-.947-.77-1.714-1.72-1.714-.948 0-1.718.767-1.718 1.714s.77 1.715 1.719 1.715Zm11.099 2.743c.95 0 1.72-.768 1.72-1.715 0-.947-.77-1.714-1.72-1.714a1.716 1.716 0 1 0 0 3.429Zm-7.415 1.665c.814 0 1.473-.658 1.473-1.47a1.472 1.472 0 0 0-2.946.001c0 .811.66 1.47 1.473 1.47Zm4.961 1.862a1.471 1.471 0 1 0 0-2.94c-.814 0-1.473.659-1.473 1.47 0 .812.66 1.47 1.473 1.47ZM46.85 44.026c.814 0 1.474-.658 1.474-1.47 0-.81-.66-1.469-1.474-1.469-.813 0-1.473.658-1.473 1.47 0 .811.66 1.47 1.473 1.47Zm3.39 3.283c.677 0 1.227-.548 1.227-1.225 0-.676-.55-1.224-1.227-1.224a1.225 1.225 0 1 0-.001 2.449Zm2.11 3.379a1.078 1.078 0 1 0 0-2.155 1.079 1.079 0 1 0 0 2.155Zm-2.603.686a.883.883 0 1 0 .003-1.765.883.883 0 0 0-.003 1.765Zm-2.307-2.547a1.079 1.079 0 1 0 0-2.155 1.078 1.078 0 1 0 0 2.155Zm-3.34-2.351a1.226 1.226 0 1 0 .001-2.449c-.678 0-1.228.548-1.228 1.224 0 .677.55 1.225 1.228 1.225Zm-.05-9.209c.678 0 1.228-.549 1.228-1.225a1.227 1.227 0 0 0-2.456 0c0 .676.55 1.224 1.228 1.224Zm.54-4.311a1.078 1.078 0 1 0 0-2.155 1.079 1.079 0 1 0 0 2.155Zm1.18-3.526a.883.883 0 1 0 .003-1.766.883.883 0 0 0-.002 1.765Zm-2.063-1.666a1.08 1.08 0 0 0 1.08-1.077 1.08 1.08 0 0 0-1.08-1.078 1.079 1.079 0 1 0 0 2.155ZM55.15 49.17a1.226 1.226 0 1 0 0-2.45c-.678 0-1.228.549-1.228 1.225s.55 1.224 1.228 1.224ZM40.907 26.344a1.226 1.226 0 1 0 0-2.449 1.225 1.225 0 1 0 0 2.449Zm.836 5.192c.678 0 1.228-.548 1.228-1.224 0-.677-.55-1.225-1.228-1.225a1.225 1.225 0 1 0 0 2.449Zm-1.375 4.947c.813 0 1.473-.658 1.473-1.47 0-.81-.66-1.469-1.473-1.469-.814 0-1.474.658-1.474 1.47 0 .811.66 1.47 1.474 1.47Zm-4.47 0c.95 0 1.72-.768 1.72-1.714 0-.947-.77-1.715-1.72-1.715-.949 0-1.718.768-1.718 1.715 0 .946.77 1.714 1.718 1.714Zm-5.205 1.177a1.962 1.962 0 0 0 1.964-1.96c0-1.082-.88-1.96-1.964-1.96a1.962 1.962 0 0 0-1.965 1.96c0 1.082.88 1.96 1.965 1.96Zm-5.695 2.791a2.305 2.305 0 0 0 2.308-2.302 2.305 2.305 0 0 0-2.308-2.302 2.305 2.305 0 0 0-2.309 2.302 2.305 2.305 0 0 0 2.309 2.302Zm-5.894 4.702a2.747 2.747 0 0 0 2.75-2.743 2.747 2.747 0 0 0-2.75-2.743 2.747 2.747 0 0 0-2.75 2.743 2.747 2.747 0 0 0 2.75 2.743Zm3.585-10.433a2.305 2.305 0 0 0 2.308-2.302 2.305 2.305 0 0 0-2.308-2.302 2.305 2.305 0 0 0-2.308 2.302 2.305 2.305 0 0 0 2.308 2.302Zm5.695-2.792a1.962 1.962 0 0 0 1.965-1.96c0-1.081-.88-1.959-1.965-1.959a1.962 1.962 0 0 0-1.964 1.96c0 1.082.88 1.959 1.964 1.959Zm-.834-5.193a1.962 1.962 0 0 0 1.965-1.959c0-1.082-.88-1.96-1.965-1.96a1.962 1.962 0 0 0-1.964 1.96c0 1.082.88 1.96 1.964 1.96Zm5.206-1.175c.95 0 1.719-.767 1.719-1.714s-.77-1.715-1.72-1.715c-.948 0-1.718.768-1.718 1.715 0 .947.77 1.714 1.719 1.714Zm4.469 0c.814 0 1.474-.658 1.474-1.47 0-.811-.66-1.469-1.474-1.469-.813 0-1.473.658-1.473 1.47 0 .811.66 1.47 1.473 1.47Zm.835 5.192a1.47 1.47 0 0 0 1.472-1.47c0-.811-.66-1.469-1.473-1.469-.813 0-1.473.658-1.473 1.47 0 .811.66 1.469 1.473 1.469Zm-4.468.049c.95 0 1.719-.767 1.719-1.714s-.77-1.714-1.72-1.714c-.948 0-1.718.767-1.718 1.714s.77 1.714 1.719 1.714ZM28.73 43.83a.883.883 0 1 0-.884-.881c0 .487.395.882.884.882Zm3.534-.44a1.079 1.079 0 1 0 0-2.155 1.079 1.079 0 1 0 0 2.155Zm3.88-1.47a1.225 1.225 0 1 0 0-2.448c-.678 0-1.228.548-1.228 1.224 0 .677.55 1.225 1.228 1.225Zm.933 3.92c.814 0 1.473-.659 1.473-1.47 0-.812-.66-1.47-1.473-1.47-.814 0-1.474.658-1.474 1.47 0 .811.66 1.47 1.474 1.47Zm-4.713.93c.678 0 1.228-.549 1.228-1.225a1.227 1.227 0 0 0-2.455 0c0 .676.55 1.224 1.227 1.224Zm-4.176-.05a1.078 1.078 0 1 0 0-2.155 1.079 1.079 0 1 0 0 2.155Zm.05 3.38a1.225 1.225 0 1 0 0-2.449c-.679 0-1.228.549-1.228 1.225s.55 1.224 1.227 1.224Zm5.009.637c.813 0 1.473-.658 1.473-1.47 0-.81-.66-1.469-1.473-1.469-.814 0-1.474.658-1.474 1.47 0 .811.66 1.47 1.474 1.47Zm5.845-.637c.95 0 1.719-.767 1.719-1.714s-.77-1.714-1.72-1.714c-.948 0-1.718.767-1.718 1.714s.77 1.714 1.719 1.714Zm3.437 4.261a1.962 1.962 0 0 0 1.964-1.959c0-1.082-.88-1.96-1.964-1.96a1.962 1.962 0 0 0-1.965 1.96c0 1.082.88 1.96 1.965 1.96Zm-7.219.589c.95 0 1.72-.768 1.72-1.715 0-.946-.77-1.714-1.72-1.714-.949 0-1.718.768-1.718 1.714 0 .947.77 1.715 1.719 1.715Zm-4.077 3.33c.949 0 1.718-.767 1.718-1.714s-.77-1.714-1.718-1.714c-.95 0-1.72.767-1.72 1.714s.77 1.714 1.72 1.714Zm3.39 4.311a1.962 1.962 0 0 0 1.964-1.96c0-1.081-.88-1.958-1.964-1.958a1.962 1.962 0 0 0-1.965 1.959c0 1.082.88 1.96 1.965 1.96Zm9.035.784a2.305 2.305 0 0 0 2.308-2.302 2.305 2.305 0 0 0-2.308-2.302 2.305 2.305 0 0 0-2.308 2.302 2.305 2.305 0 0 0 2.308 2.302Zm-4.959-4.115a1.962 1.962 0 0 0 1.964-1.96c0-1.081-.88-1.959-1.964-1.959a1.962 1.962 0 0 0-1.965 1.96c0 1.082.88 1.959 1.965 1.959Zm8.74-.783a2.305 2.305 0 0 0 2.308-2.302 2.305 2.305 0 0 0-2.308-2.302 2.305 2.305 0 0 0-2.308 2.302 2.305 2.305 0 0 0 2.308 2.302ZM29.17 54.068c.814 0 1.474-.658 1.474-1.47 0-.81-.66-1.469-1.473-1.469-.814 0-1.474.658-1.474 1.47 0 .811.66 1.47 1.474 1.47ZM79 24h1v32h-1V24Zm21.888 24h3.501l3.831-10.993L112.027 48h3.478l4.888-16h-3.76l-2.985 10.736L110.076 32h-3.76l-3.572 10.736L99.76 32H96l4.888 16Zm24.234 0h3.478V32h-3.478v16Zm9.428 0h3.455v-4.472l2.021-2.142L144.984 48h4.206l-6.744-9.06 6.298-6.94h-4.207l-6.532 7.336V32h-3.455v16Zm18.972 0H157V32h-3.478v16Z"/>
</svg>
